<svg xmlns="http://www.w3.org/2000/svg" viewBox="0 0 271.08 65.645"><defs><style>.a{fill:#ea3c94;}.b,.d{fill:#fff;}.c{stroke:#231f20;}.c,.d{stroke-miterlimit:10;}.d{stroke:#fff;}</style></defs><title>logo2</title><path class="a" d="M50.8,84.849l1.024-39.6-11.482,39.6H29.155l-11.409-39.6,1.024,39.6H6.19V35.628H25.059l9.727,34.44,9.581-34.44H63.236V84.849Z" transform="translate(-6.19 -35.628)"/><path class="b" d="M90.7,84.849V81.865c-.811.508-1.548.953-2.358,1.4a18.4,18.4,0,0,1-9.434,2.476c-6.928,0-10.1-3.238-11.35-5.46A9.389,9.389,0,0,1,66.3,75.643c0-5.969,6.191-8.825,7.886-9.461,2.874-1.079,8.107-1.968,15.4-3.11V61.23c0-1.143-.221-4-4.349-4-3.316,0-4.864,1.334-5.454,2.413a5.205,5.205,0,0,0-.516,1.46H67.926a9,9,0,0,1,3.1-6.666c3.169-2.667,7.37-3.175,8.7-3.366a42.168,42.168,0,0,1,4.938-.254c5.38,0,12.676,1.08,15.256,5.841a7.191,7.191,0,0,1,.811,3.683V79.706c0,2.856.147,3.937,1.105,5.143ZM82.3,71.072a10.823,10.823,0,0,0-1.327.444c-2.8,1.016-3.538,2.412-3.538,3.683a3.47,3.47,0,0,0,.442,1.523,4.475,4.475,0,0,0,3.906,1.841A8.787,8.787,0,0,0,86.13,77.23c3.317-2.031,3.464-5.143,3.464-8.254Z" transform="translate(-6.19 -35.628)"/><path class="b" d="M24.08,87.19a6.077,6.077,0,0,1,2.227.521,5.058,5.058,0,0,1,1.924,1.508l.01.01a4.5,4.5,0,0,1,.889,2.215,7.975,7.975,0,0,1-.1,2.672,9.383,9.383,0,0,1-.986,2.662,7.831,7.831,0,0,1-1.8,2.215l-.01.009a8.417,8.417,0,0,1-2.539,1.5,7.879,7.879,0,0,1-2.822.521h-3.33L20.369,87.19H24.08ZM21.267,99.179a6,6,0,0,0,2.051-.345,5.749,5.749,0,0,0,1.8-1.043,6.227,6.227,0,0,0,1.357-1.647,6.789,6.789,0,0,0,.752-2.047,5.613,5.613,0,0,0,.078-2.039,3.462,3.462,0,0,0-2.07-2.7,4.972,4.972,0,0,0-1.924-.345H21.785l-.117.577L19.832,98.6l-.117.577h1.553Z" transform="translate(-6.19 -35.628)"/><path class="b" d="M96.612,87.107a7.087,7.087,0,0,1,1.348.13,5.34,5.34,0,0,1,1.2.419,6.274,6.274,0,0,1,1.045.661c.186.158.361.307.508.456L99.141,90.1a3.809,3.809,0,0,0-1.055-.754,4.349,4.349,0,0,0-1.836-.382,5.611,5.611,0,0,0-2.012.382,6.8,6.8,0,0,0-1.846,1.135,6.728,6.728,0,0,0-1.436,1.666h-.01a6.126,6.126,0,0,0-.771,1.974,5.053,5.053,0,0,0-.039,1.982,4.013,4.013,0,0,0,.771,1.657A3.477,3.477,0,0,0,92.3,98.89a4.441,4.441,0,0,0,1.846.382,5.672,5.672,0,0,0,2.012-.382,5.8,5.8,0,0,0,1.367-.744l1.016,1.331c-.215.158-.449.307-.693.456a8.747,8.747,0,0,1-1.318.66,7.255,7.255,0,0,1-1.357.41,7.106,7.106,0,0,1-1.416.14,5.912,5.912,0,0,1-2.52-.513,5.009,5.009,0,0,1-1.895-1.545,5.2,5.2,0,0,1-1.045-2.28,6.609,6.609,0,0,1,.049-2.689,8.158,8.158,0,0,1,1.045-2.69,9.577,9.577,0,0,1,1.973-2.29A9.082,9.082,0,0,1,93.9,87.581a7.186,7.186,0,0,1,1.982-.475Z" transform="translate(-6.19 -35.628)"/><path class="b" d="M102.268,87.181h4.219a4.5,4.5,0,0,1,1.836.363,3.482,3.482,0,0,1,2,2.363,4.031,4.031,0,0,1-.039,1.629l-.078.392a4.577,4.577,0,0,1-.479,1.321,7.552,7.552,0,0,1-.869,1.2,4.338,4.338,0,0,1-.82.735,4.16,4.16,0,0,1-.928.446l-.684.261.244.6,1.934,4.533H106.35l-2.09-4.85h-2l-.986,4.85H99.456Zm3.037,7.139v.01a2.726,2.726,0,0,0,1.016-.187,3.881,3.881,0,0,0,.889-.586,3.234,3.234,0,0,0,.762-.894,3.123,3.123,0,0,0,.381-1.033,2.727,2.727,0,0,0,.039-1.006,2.3,2.3,0,0,0-.4-.837v-.01a1.853,1.853,0,0,0-.859-.577,3.49,3.49,0,0,0-1.2-.2h-2.217l-.117.586-.85,4.143-.117.577h.566l.684.009h1.426Z" transform="translate(-6.19 -35.628)"/><path class="b" d="M120.347,87.153,119.967,89h-5.879l-.117.577-.615,3.025-.117.586h4.4l-.371,1.844h-4.414l-.117.577-.615,3.024-.117.587h5.879l-.381,1.843H109.82l2.842-13.906Z" transform="translate(-6.19 -35.628)"/><path class="b" d="M129.824,101.022H127.89l-.537-2.28h-5.732l-1.465,2.28h-1.934l8.652-13.972Zm-5.039-3.77H127c-.2-.866-.371-1.806-.537-2.8s-.332-1.937-.518-2.812c-.547.875-1.113,1.815-1.689,2.812s-1.133,1.936-1.67,2.8Z" transform="translate(-6.19 -35.628)"/><path class="b" d="M136.9,87.181h3.027l-.371,1.833h-3.6l-.117.577L133.5,101.022h-1.807l2.334-11.431.117-.577H130.53l.381-1.833H136.9Z" transform="translate(-6.19 -35.628)"/><path class="b" d="M148,87.581a5.318,5.318,0,0,1,1.9,1.563,5.466,5.466,0,0,1,1.055,2.271,6.816,6.816,0,0,1-.039,2.7,8.26,8.26,0,0,1-1.055,2.7,9.107,9.107,0,0,1-1.982,2.271,8.908,8.908,0,0,1-2.539,1.545,7.52,7.52,0,0,1-2.734.513,5.926,5.926,0,0,1-2.529-.513,5.009,5.009,0,0,1-1.895-1.545,5.2,5.2,0,0,1-1.045-2.28,6.609,6.609,0,0,1,.049-2.689,8.158,8.158,0,0,1,1.045-2.69,9.577,9.577,0,0,1,1.973-2.29,9.082,9.082,0,0,1,2.539-1.554,7.26,7.26,0,0,1,2.734-.513A5.79,5.79,0,0,1,148,87.581Zm-4.912,1.74a6.729,6.729,0,0,0-1.846,1.136,6.839,6.839,0,0,0-1.445,1.666,6.109,6.109,0,0,0-.771,1.974,5.005,5.005,0,0,0-.039,1.973,3.846,3.846,0,0,0,.771,1.666,3.487,3.487,0,0,0,1.387,1.127,4.454,4.454,0,0,0,1.855.381,5.528,5.528,0,0,0,1.992-.381,6.543,6.543,0,0,0,1.855-1.127,6.839,6.839,0,0,0,1.445-1.666,5.862,5.862,0,0,0,.791-1.973,4.81,4.81,0,0,0,.02-1.974,4.257,4.257,0,0,0-.762-1.666,3.966,3.966,0,0,0-1.406-1.136,4.364,4.364,0,0,0-1.836-.382A5.592,5.592,0,0,0,143.084,89.322Z" transform="translate(-6.19 -35.628)"/><path class="b" d="M153.553,87.181h4.219a4.5,4.5,0,0,1,1.836.363,3.482,3.482,0,0,1,2,2.363,4.031,4.031,0,0,1-.039,1.629l-.078.392a4.577,4.577,0,0,1-.479,1.321,7.552,7.552,0,0,1-.869,1.2,4.338,4.338,0,0,1-.82.735,4.16,4.16,0,0,1-.928.446l-.684.261.244.6,1.934,4.533h-2.256l-2.09-4.85h-2l-.986,4.85H150.74Zm3.037,7.139v.01a2.726,2.726,0,0,0,1.016-.187,3.881,3.881,0,0,0,.889-.586,3.234,3.234,0,0,0,.762-.894,3.123,3.123,0,0,0,.381-1.033,2.727,2.727,0,0,0,.039-1.006,2.3,2.3,0,0,0-.4-.837v-.01a1.853,1.853,0,0,0-.859-.577,3.49,3.49,0,0,0-1.2-.2H155l-.117.586-.85,4.143-.117.577h.566l.684.009h1.426Z" transform="translate(-6.19 -35.628)"/><path class="b" d="M165.762,99.085a3.693,3.693,0,0,0,.811-.428,2.736,2.736,0,0,0,.664-.661,2.139,2.139,0,0,0,.361-.838,1.4,1.4,0,0,0-.01-.7,1.317,1.317,0,0,0-.293-.549,2.42,2.42,0,0,0-.527-.428,4.362,4.362,0,0,0-.635-.316,7.208,7.208,0,0,0-.684-.233,5.406,5.406,0,0,1-1.455-.66,3.26,3.26,0,0,1-1.016-1.052,2.775,2.775,0,0,1-.352-1,3.356,3.356,0,0,1,.039-1.164,4.608,4.608,0,0,1,.615-1.545,5.463,5.463,0,0,1,1.1-1.275,5.092,5.092,0,0,1,1.426-.865,4.3,4.3,0,0,1,1.582-.308,3.4,3.4,0,0,1,1.318.261,2.958,2.958,0,0,1,1.035.717,3.08,3.08,0,0,1,.8,1.937l-1.875.391a1.732,1.732,0,0,0-.332-.791,1.562,1.562,0,0,0-1.318-.614,2.13,2.13,0,0,0-.82.158,2.869,2.869,0,0,0-.762.456,2.693,2.693,0,0,0-.586.688,2.564,2.564,0,0,0-.322.8,1.958,1.958,0,0,0-.029.577,1.269,1.269,0,0,0,.137.456,1.41,1.41,0,0,0,.283.372,2.04,2.04,0,0,0,.371.289,3.6,3.6,0,0,0,.439.232c.176.074.332.14.459.186s.293.094.469.158.313.112.4.149a6.045,6.045,0,0,1,.859.419,3.938,3.938,0,0,1,.732.586,3.363,3.363,0,0,1,.557.735,2.608,2.608,0,0,1,.283.9,2.9,2.9,0,0,1-.039,1.042,4.358,4.358,0,0,1-.664,1.573,5.371,5.371,0,0,1-1.172,1.275,5.552,5.552,0,0,1-1.494.838,4.556,4.556,0,0,1-1.6.316,3.605,3.605,0,0,1-1.611-.363,3.125,3.125,0,0,1-1.758-2.55l1.885-.4a1.672,1.672,0,0,0,.664,1.023,1.936,1.936,0,0,0,1.191.391A2.976,2.976,0,0,0,165.762,99.085Z" transform="translate(-6.19 -35.628)"/><path class="b" d="M168.873,70.309A8.081,8.081,0,0,0,169,72.278c.762,3.873,3.492,6.285,7.429,6.285a9.215,9.215,0,0,0,3.174-.571c3.3-1.143,4.762-4.508,5.207-5.333l7.365,3.81a37.482,37.482,0,0,1-2.793,3.746,18.376,18.376,0,0,1-13.714,5.841,20.039,20.039,0,0,1-5.968-.889c-7.365-2.285-10.793-8.762-10.793-16.254,0-2.031.127-8.19,4.254-12.952,2.032-2.286,5.524-5.27,12.762-5.27,2.222,0,8.826.254,12.953,6.031,3.746,5.143,3.619,12,3.683,13.587Zm9.968-12a6.494,6.494,0,0,0-2.984-.635,6.69,6.69,0,0,0-6.159,4,11.309,11.309,0,0,0-.762,2.54h13.524C182.334,63.135,182.143,59.77,178.842,58.309Z" transform="translate(-6.19 -35.628)"/><path class="b" d="M218.6,84.849l-.063-3.111a16.554,16.554,0,0,1-1.9,1.715,11.787,11.787,0,0,1-7.047,2.285A13.716,13.716,0,0,1,198.536,79.9c-1.587-2.286-3.111-5.461-3.111-11.429,0-1.9,0-10.54,6.286-15.175a12.19,12.19,0,0,1,7.556-2.476,13.2,13.2,0,0,1,8.7,3.364V40.024h9.524V84.849Zm-2.032-24.19a5.291,5.291,0,0,0-5.206-2.477,6.108,6.108,0,0,0-4.317,2.794c-1.333,1.969-1.714,4.952-1.714,7.3,0,.635-.063,5.016,1.841,7.81a5.177,5.177,0,0,0,4.444,2.412,5.778,5.778,0,0,0,3.429-1.206c3.365-2.667,3.174-8.19,3.174-9.016S218.409,63.452,216.568,60.658Z" transform="translate(-6.19 -35.628)"/><path class="b" d="M233.088,47.579V40.024H242.8v7.556Zm0,37.27V51.706H242.8V84.849Z" transform="translate(-6.19 -35.628)"/><path class="b" d="M267.683,84.849V81.865c-.7.508-1.333.953-2.032,1.4a14.26,14.26,0,0,1-8.127,2.476c-5.968,0-8.7-3.238-9.777-5.46a10.573,10.573,0,0,1-1.079-4.635c0-5.969,5.333-8.825,6.793-9.461,2.477-1.079,6.984-1.968,13.271-3.111V61.229c0-1.143-.19-4-3.746-4-2.857,0-4.19,1.334-4.7,2.413a5.756,5.756,0,0,0-.445,1.46h-9.777a9.737,9.737,0,0,1,2.667-6.666,13.6,13.6,0,0,1,7.492-3.365,31.334,31.334,0,0,1,4.254-.254c4.635,0,10.92,1.079,13.143,5.841a8.139,8.139,0,0,1,.7,3.683V79.706c0,2.856.127,3.937.952,5.143Zm-7.238-13.777a8.477,8.477,0,0,0-1.143.444c-2.413,1.016-3.048,2.412-3.048,3.683a3.907,3.907,0,0,0,.381,1.523A3.73,3.73,0,0,0,260,78.563a6.887,6.887,0,0,0,3.746-1.333c2.857-2.031,2.984-5.143,2.984-8.254Z" transform="translate(-6.19 -35.628)"/><path class="b" d="M145.314,84.849v-17.4c0-3.429,0-5.4-.89-6.794a4.3,4.3,0,0,0-3.683-1.9,4.844,4.844,0,0,0-4.317,2.349c-.762,1.333-.7,2.73-.7,5.715V84.849h-9.714V65.166c0-3.175-.445-4.571-1.9-5.523a5.013,5.013,0,0,0-2.857-.825,4.532,4.532,0,0,0-2.793.825c-2.032,1.523-2.1,4.127-2.1,6.285V84.849h-9.651V51.706h9.651l.063,3.429a10.535,10.535,0,0,1,1.651-1.715,11.786,11.786,0,0,1,7.682-2.6,13.6,13.6,0,0,1,6.6,1.587,15.29,15.29,0,0,1,2.667,2.286,18.57,18.57,0,0,1,2.35-1.778,14.66,14.66,0,0,1,7.491-2.095c1.144,0,5.778.063,8.509,3.619,1.587,1.968,1.65,4.063,1.65,8.825V84.849Z" transform="translate(-6.19 -35.628)"/><rect class="c" x="100.508" y="33.431" width="169.625" height="1.5"/><path class="b" d="M39.12,101.021H37.186l-.537-2.28H30.917l-1.465,2.28H27.518L36.17,87.051Zm-5.039-3.77H36.3c-.2-.865-.371-1.806-.537-2.8s-.332-1.936-.518-2.811c-.547.875-1.113,1.814-1.689,2.811s-1.133,1.937-1.67,2.8Z" transform="translate(-6.19 -35.628)"/><path class="b" d="M43.2,87.181h4.219a4.5,4.5,0,0,1,1.836.363,3.486,3.486,0,0,1,2,2.364,4.031,4.031,0,0,1-.039,1.629l-.078.391a4.583,4.583,0,0,1-.479,1.322,7.592,7.592,0,0,1-.869,1.2,4.338,4.338,0,0,1-.82.735,4.158,4.158,0,0,1-.928.447l-.684.261.244.6,1.934,4.532H47.284l-2.09-4.849h-2l-.986,4.849H40.39Zm3.037,7.14v.009a2.726,2.726,0,0,0,1.016-.186,3.857,3.857,0,0,0,.889-.587,3.234,3.234,0,0,0,.762-.894,3.115,3.115,0,0,0,.381-1.033,2.721,2.721,0,0,0,.039-1,2.309,2.309,0,0,0-.4-.838v-.009a1.845,1.845,0,0,0-.859-.577,3.467,3.467,0,0,0-1.2-.2H44.647l-.117.587-.85,4.142-.117.577h.566l.684.01h1.426Z" transform="translate(-6.19 -35.628)"/><path class="b" d="M53.536,87.181h1.807L52.52,101.021H50.713Z" transform="translate(-6.19 -35.628)"/><path class="b" d="M63.95,96.545l.332-1.647,1.582-7.744H67.67l-2.881,14.12L57.934,91.64,57.719,92.7l-1.7,8.358H54.2l2.861-14.018Z" transform="translate(-6.19 -35.628)"/><path class="b" d="M75.3,87.088h.4a6.238,6.238,0,0,1,1.348.14,5.637,5.637,0,0,1,1.2.409,5.565,5.565,0,0,1,1.045.661c.146.121.313.27.508.456l-1.562,1.331a3.8,3.8,0,0,0-1.055-.744,4.3,4.3,0,0,0-1.846-.382,5.294,5.294,0,0,0-2,.382,6.531,6.531,0,0,0-1.855,1.135,6.994,6.994,0,0,0-1.436,1.666,6.036,6.036,0,0,0-.781,1.974,4.992,4.992,0,0,0-.029,1.974A3.947,3.947,0,0,0,70,97.755a3.654,3.654,0,0,0,1.4,1.136,4.441,4.441,0,0,0,1.846.381,5.309,5.309,0,0,0,1.6-.251,6.052,6.052,0,0,0,1.523-.717,7.335,7.335,0,0,0,1.1-.9,6.986,6.986,0,0,0,.908-1.09l.547-.828h-4.5l.352-1.722h6.4a8.91,8.91,0,0,1-.937,2.728,8.773,8.773,0,0,1-2.129,2.6,9.278,9.278,0,0,1-2.539,1.545,7.3,7.3,0,0,1-2.734.512,5.731,5.731,0,0,1-2.52-.512,5.057,5.057,0,0,1-1.9-1.545,5.154,5.154,0,0,1-1.045-2.271,6.844,6.844,0,0,1,.059-2.7,8.367,8.367,0,0,1,1.045-2.7,9.121,9.121,0,0,1,1.973-2.28,8.728,8.728,0,0,1,2.529-1.555,7.405,7.405,0,0,1,2.324-.512Z" transform="translate(-6.19 -35.628)"/><rect class="d" x="261.521" y="34.924" width="0.625" height="0.625"/></svg>